<svg width="20" height="17" viewBox="0 0 20 17" fill="none" xmlns="http://www.w3.org/2000/svg">
<path d="M14.5834 0.583328H5.41671C5.17837 0.583328 4.94921 0.592495 4.72921 0.629162C2.36421 0.904162 0.833374 2.65499 0.833374 5.16666V11.5833C0.833374 14.3333 2.66671 16.1667 5.41671 16.1667H14.5834C17.3334 16.1667 19.1667 14.3333 19.1667 11.5833V5.16666C19.1667 2.41666 17.3334 0.583328 14.5834 0.583328ZM6.22337 10.6667C4.95837 10.6667 3.93171 9.63999 3.93171 8.37499C3.93171 7.10999 4.95837 6.08333 6.22337 6.08333C7.48837 6.08333 8.51504 7.10999 8.51504 8.37499C8.51504 9.63999 7.48837 10.6667 6.22337 10.6667ZM12.1817 10.8958H11.7234C11.3475 10.8958 11.0359 10.5842 11.0359 10.2083C11.0359 9.83249 11.3475 9.52083 11.7234 9.52083H12.1817C12.5575 9.52083 12.8692 9.83249 12.8692 10.2083C12.8692 10.5842 12.5575 10.8958 12.1817 10.8958ZM15.39 10.8958H14.9317C14.5559 10.8958 14.2442 10.5842 14.2442 10.2083C14.2442 9.83249 14.5559 9.52083 14.9317 9.52083H15.39C15.7659 9.52083 16.0775 9.83249 16.0775 10.2083C16.0775 10.5842 15.7659 10.8958 15.39 10.8958ZM15.39 7.22916H11.7234C11.3475 7.22916 11.0359 6.91749 11.0359 6.54166C11.0359 6.16583 11.3475 5.85416 11.7234 5.85416H15.39C15.7659 5.85416 16.0775 6.16583 16.0775 6.54166C16.0775 6.91749 15.7659 7.22916 15.39 7.22916Z" fill="#EFEEE0" fill-opacity="0.25"/>
</svg>
